<svg width="132" height="38" viewBox="0 0 132 38" fill="none" xmlns="http://www.w3.org/2000/svg">
<g clip-path="url(#clip0_1817_2257)">
<path d="M5.37682 30.0811L6.33306 30.1299C6.62267 30.1462 6.91227 30.1516 7.20734 30.1516C8.10894 30.1516 9.05972 30.0757 10.0488 29.9347C9.55151 29.9075 9.19633 29.8262 8.93405 29.696C8.54062 29.5224 8.28926 29.3435 8.1308 29.1265C8.00512 28.9529 7.90677 28.7251 7.81387 28.416L7.77562 28.2804L7.93409 25.7962H7.89584C6.4041 25.7962 5.10907 25.4599 4.049 24.8036C2.73758 23.99 1.75948 22.4605 1.13655 20.253C0.502701 18.0075 0.814164 16.0549 2.06001 14.4494C3.26761 12.8927 5.44239 11.6994 8.72094 10.7882C9.28922 10.6309 9.83565 10.4953 10.3438 10.3869C10.7373 10.3001 11.1252 10.235 11.5077 10.1862L14.1087 6.76367L20.0429 9.9204L18.5621 13.0554C19.0265 13.7931 19.4254 14.7423 19.7478 15.8867C20.021 16.863 20.1522 17.7688 20.1248 18.577C20.0975 19.4448 19.8626 20.2475 19.4309 20.9635C19.0101 21.6578 18.3817 22.2869 17.5621 22.8348C17.431 22.9215 17.2944 23.0083 17.1468 23.0951C17.3053 23.0788 17.4583 23.0626 17.6058 23.0517C17.8954 23.0246 18.1686 23.0137 18.4309 23.0137C19.103 23.0137 19.715 23.0951 20.2451 23.2578C21.0319 23.4965 21.6822 23.9195 22.1794 24.5107C22.6439 25.0694 23.0154 25.8233 23.2777 26.7508C23.7149 28.2912 23.7312 29.6255 23.3269 30.7049C22.928 31.768 22.2668 32.6629 21.3543 33.368C20.4964 34.0297 19.4582 34.583 18.2725 35.0006C17.1468 35.3966 15.9939 35.76 14.8464 36.08C12.4913 36.7363 9.80286 37.0997 6.85216 37.1593L6.0981 37.1756L5.37135 30.0865L5.37682 30.0811ZM10.6662 16.901C9.73183 17.1613 9.37119 17.3891 9.24004 17.4976C9.19633 17.5356 9.1854 17.72 9.26736 17.9966L9.67718 19.4556L9.96133 19.3797C10.8957 19.1194 11.2673 18.8861 11.4094 18.7722C11.4804 18.718 11.4531 18.4848 11.393 18.2787L10.9831 16.8196L10.6717 16.9064L10.6662 16.901Z" fill="#00CCFF"/>
<path d="M14.3436 7.81043L18.9719 10.2729L17.6222 13.1259C18.1522 13.8256 18.6003 14.8181 18.9609 16.1036C19.2177 17.004 19.3325 17.8176 19.3052 18.5498C19.2833 19.282 19.0921 19.9437 18.726 20.5404C18.3653 21.137 17.8244 21.674 17.1031 22.1513C16.3818 22.6286 15.4474 23.0788 14.2999 23.5073L14.3928 24.3805C15.6714 24.1093 16.7643 23.9303 17.6823 23.8544C17.9446 23.8327 18.2014 23.8218 18.4418 23.8218C19.0374 23.8218 19.562 23.8924 20.0155 24.028C20.6548 24.2232 21.1685 24.5541 21.5619 25.026C21.9553 25.4978 22.2668 26.1433 22.5018 26.9677C22.8897 28.3454 22.917 29.5007 22.5728 30.4228C22.2285 31.3448 21.6603 32.115 20.8625 32.7279C20.0647 33.3408 19.1139 33.8453 18.0101 34.2358C16.9009 34.6263 15.7807 34.9789 14.6387 35.2989C12.3437 35.9389 9.74272 36.286 6.84667 36.3511L6.28932 30.9543C6.58985 30.9706 6.89585 30.9814 7.20731 30.9814C9.13619 30.9814 11.2345 30.6668 13.4912 30.0377C13.8792 29.9292 14.207 29.8316 14.4857 29.7448C14.7644 29.658 14.9775 29.5821 15.125 29.5224L14.7862 28.3129C13.7426 28.6003 12.8847 28.8173 12.218 28.9475C11.5732 29.0776 11.0705 29.1427 10.7208 29.1427C10.7099 29.1427 10.6935 29.1427 10.6826 29.1427C10.6279 29.1427 10.5733 29.1427 10.5241 29.1427C9.90665 29.1427 9.49683 29.0831 9.28919 28.9692C9.02691 28.8552 8.86298 28.7522 8.79741 28.6546C8.73184 28.5624 8.66627 28.4051 8.60616 28.199L8.8138 24.95C8.49687 24.9771 8.19634 24.9934 7.90127 24.9934C6.55706 24.9934 5.4205 24.7059 4.49158 24.1256C3.35501 23.4205 2.50259 22.0591 1.9343 20.0468C1.37149 18.0562 1.63377 16.3585 2.71569 14.9646C3.79762 13.5652 5.8795 12.4425 8.94494 11.5909C9.5023 11.4336 10.0323 11.3034 10.5186 11.2004C11.0104 11.0973 11.4858 11.0214 11.9503 10.9726L14.3436 7.8267M9.10887 20.4753L10.1799 20.177C11.0104 19.9437 11.5951 19.6888 11.9339 19.4122C12.2727 19.1302 12.3546 18.6854 12.1798 18.0725L11.5459 15.8324L10.4476 16.1362C9.61705 16.3694 9.03784 16.6189 8.70998 16.9009C8.38212 17.1775 8.30563 17.6223 8.48048 18.2352L9.11434 20.4753M13.8846 5.7168L13.0377 6.8287L11.0596 9.42676C10.7645 9.47015 10.4695 9.52439 10.1744 9.58948C9.6553 9.70338 9.09248 9.83898 8.50234 10.0071C5.04893 10.9672 2.73209 12.258 1.4152 13.9557C-4.15584e-05 15.7782 -0.355218 17.9694 0.355135 20.4753C1.0327 22.8781 2.13102 24.5704 3.62276 25.4924C4.61179 26.1053 5.77021 26.4687 7.0707 26.5772L6.97235 28.0905L6.95595 28.3671L7.03245 28.6329C7.10895 28.9095 7.20185 29.1427 7.31113 29.3434C7.27835 29.3434 7.24556 29.3434 7.21824 29.3434C6.93956 29.3434 6.66088 29.338 6.38767 29.3217L4.47518 29.2187L4.6719 31.1116L5.22925 36.5084L5.38225 38L6.89585 37.9674C9.91758 37.9024 12.677 37.5281 15.0977 36.8555C16.267 36.5301 17.4364 36.1613 18.573 35.7599C19.8407 35.3097 20.9554 34.7239 21.8843 34.0026C22.917 33.2052 23.6711 32.1855 24.1246 30.9814C24.5891 29.7339 24.5782 28.2369 24.0973 26.523C23.8022 25.4653 23.387 24.6354 22.8405 23.9846C22.2395 23.2686 21.4581 22.7588 20.5128 22.4713C20.1958 22.3737 19.8571 22.3032 19.5019 22.2543C19.7532 21.9723 19.9718 21.6848 20.1576 21.3757C20.6658 20.5404 20.939 19.602 20.9718 18.5932C20.9991 17.6982 20.8625 16.7111 20.5674 15.6588C20.2723 14.612 19.9226 13.7334 19.5183 13.0011L20.4854 10.9563L21.1466 9.56236L19.7751 8.83555L15.1469 6.37309L13.912 5.7168H13.8846Z" fill="black"/>
<path d="M17.6551 13.0117L19.1741 12.3771C19.0102 12.3663 18.8463 12.3392 18.6933 12.3066C18.1304 12.1873 17.6387 11.9053 17.2288 11.4768C16.8354 11.07 16.5403 10.4842 16.3163 9.69229C16.1469 9.08481 16.0704 8.55869 16.0923 8.08139C16.1141 7.52815 16.2945 7.02915 16.6223 6.59523C16.9228 6.19386 17.3764 5.84131 17.9665 5.54841C18.4856 5.28807 19.1686 5.04399 19.9828 4.81619C20.8025 4.58838 21.5073 4.44736 22.0756 4.40397C22.2177 4.39312 22.3488 4.3877 22.48 4.3877C22.9554 4.3877 23.3816 4.46363 23.7532 4.61008C24.2613 4.81076 24.6766 5.14704 24.9826 5.60808C25.2504 6.00402 25.4635 6.49218 25.6329 7.09966C25.8023 7.70714 25.8788 8.23326 25.8514 8.69971C25.835 9.05227 25.7531 9.38313 25.6055 9.69229L25.8897 9.57297L31.2283 28.4916L22.6986 30.8619L17.6551 13.0009V13.0117Z" fill="#00CCFF"/>
<path d="M22.4745 5.21214C22.846 5.21214 23.1684 5.26638 23.4416 5.37486C23.7913 5.51588 24.0755 5.74368 24.2941 6.06912C24.5126 6.38913 24.6929 6.81219 24.835 7.32747C24.9826 7.84274 25.0427 8.29293 25.0263 8.66718C25.0099 9.04685 24.8842 9.38313 24.6602 9.68687C24.4307 9.99061 24.0864 10.251 23.6165 10.4733C23.1466 10.6957 22.5291 10.9181 21.7586 11.1296C21.1958 11.2869 20.6767 11.4117 20.1904 11.5039C19.939 11.5527 19.6986 11.5744 19.4691 11.5744C19.2615 11.5744 19.0593 11.5527 18.8681 11.5147C18.4692 11.428 18.1195 11.2327 17.8244 10.9235C17.5293 10.6144 17.2889 10.1316 17.1031 9.48076C16.9556 8.96549 16.89 8.50988 16.9064 8.12478C16.9228 7.73969 17.043 7.39255 17.2725 7.09424C17.502 6.79592 17.8517 6.52473 18.3271 6.2915C18.8025 6.05827 19.4254 5.83047 20.1959 5.61351C20.9663 5.39655 21.6166 5.2718 22.1302 5.22841C22.2504 5.21756 22.3597 5.21214 22.469 5.21214M25.3432 10.6903L30.2118 27.9384L23.2613 29.8693L18.6386 13.4836L25.3432 10.6903ZM22.469 3.58496C22.316 3.58496 22.1575 3.59038 21.9991 3.60123C21.3652 3.65005 20.633 3.79649 19.7478 4.04057C18.8681 4.28465 18.1632 4.53957 17.5894 4.82704C16.8845 5.17417 16.3381 5.60808 15.9556 6.11251C15.5239 6.68202 15.2944 7.33289 15.2671 8.05427C15.2453 8.61836 15.3272 9.22584 15.5239 9.91468C15.7862 10.8313 16.1469 11.531 16.6332 12.0354C16.7534 12.1656 16.8845 12.2849 17.0157 12.388L16.666 12.5344L17.0539 13.9175L21.6767 30.3032L22.1193 31.8707L23.6985 31.4314L30.649 29.5005L32.2282 29.0611L31.7856 27.4936L26.9169 10.2455L26.6109 9.16075C26.6328 9.02515 26.6492 8.88413 26.6546 8.74311C26.6819 8.18445 26.6 7.57697 26.4033 6.88271C26.2065 6.19387 25.9607 5.62978 25.6437 5.16332C25.2448 4.56669 24.7039 4.12735 24.0372 3.86158C23.5728 3.67717 23.0427 3.58496 22.4635 3.58496H22.469Z" fill="black"/>
<path d="M27.0753 15.8216L25.3814 16.2935L23.5728 11.0052L25.4798 9.90953L25.2175 8.33116C24.8787 6.12363 25.5781 3.20013 30.8238 1.7411C31.8456 1.45905 33.2008 1.20955 34.8619 0.998021L35.6269 0.900391L36.7853 7.08366L36.0859 7.20841L37.6815 12.8656L35.5996 13.4459L39.2005 26.2084L30.6708 28.5787L27.0699 15.8162L27.0753 15.8216Z" fill="#00CCFF"/>
<path d="M34.9603 1.80611L35.8291 6.43272L32.9166 6.96426L33.321 8.4016L35.4083 7.82124L36.6761 12.3068L34.5942 12.8872L38.1951 25.6497L31.2446 27.5806L27.6436 14.8181L25.906 15.3008L24.5673 11.3739L26.3814 10.3325L26.0317 8.20092C25.6109 5.46726 27.2885 3.57431 31.0533 2.52749C32.0369 2.2563 33.3429 2.01222 34.9712 1.81154M36.299 0.00537109L34.7636 0.200632C33.0423 0.417589 31.6817 0.66709 30.6053 0.965405C24.4798 2.66852 24.0919 6.38933 24.4088 8.45042L24.5837 9.49724L23.7476 9.97454L22.5837 10.6417L23.0154 11.9055L24.3542 15.8324L24.8514 17.2914L26.3486 16.8738L26.5071 16.8304L29.6654 28.0254L30.108 29.5929L31.6872 29.1535L38.6377 27.2226L40.2169 26.7833L39.7743 25.2158L36.6159 14.0208L37.1241 13.8798L38.7033 13.4404L38.2607 11.8729L37.1296 7.85921L37.7525 7.74531L37.452 6.13983L36.5832 1.51322L36.299 0.00537109Z" fill="black"/>
<path d="M35.4357 32.2289L34.7309 25.4707L35.8292 25.4815C36.7909 25.4815 37.7799 25.4165 38.758 25.2863C39.064 25.2483 39.37 25.1995 39.6815 25.1453C39.4083 25.1615 39.1405 25.1724 38.8892 25.1724C37.9548 25.1724 37.1133 25.0585 36.392 24.8307C35.3265 24.4998 34.4576 23.9032 33.8074 23.0516C33.2009 22.2597 32.7146 21.2455 32.3703 20.0468C31.649 17.5246 32.0424 15.5124 33.5397 14.0642C34.8839 12.7516 36.9384 11.6994 39.6432 10.9346C42.0038 10.2674 44.3042 9.93115 46.4845 9.93115C46.7741 9.93115 47.0637 9.93658 47.3533 9.94742L48.0582 9.97454L48.7631 16.4941L47.6156 16.4833C46.9872 16.4833 46.3697 16.5158 45.7687 16.5809C46.1566 16.5863 46.5446 16.6134 46.9216 16.6622C48.0855 16.8141 49.1456 17.2426 50.069 17.9314C51.0198 18.6474 51.7247 19.7756 52.1564 21.278C52.446 22.2814 52.588 23.2306 52.588 24.1039C52.588 25.0368 52.3913 25.8558 52.0088 26.5446C51.6263 27.1901 51.2056 27.7379 50.7411 28.1935C50.2548 28.6708 49.5991 29.0939 48.7412 29.4735C48.1347 29.7502 47.468 30.0214 46.7631 30.2709C46.0528 30.5258 45.2769 30.7699 44.4627 31.0031C41.5885 31.8167 38.8127 32.2289 36.2117 32.2289H35.4248H35.4357Z" fill="white"/>
<path d="M46.4899 10.745C46.7686 10.745 47.0472 10.7504 47.3259 10.7612L47.8614 15.6699C47.7849 15.6699 47.703 15.6699 47.6265 15.6699C46.7249 15.6699 45.8506 15.735 45.0091 15.8597C44.0911 15.9953 43.1676 16.196 42.2387 16.4563C41.9655 16.5323 41.6376 16.6353 41.2497 16.7655C40.8617 16.8957 40.4246 17.0638 39.9382 17.2591L40.2497 18.3493C41.3098 18.051 42.4136 17.7961 43.561 17.5845C44.2659 17.4543 44.9435 17.3893 45.6047 17.3893C46.02 17.3893 46.4298 17.4164 46.8287 17.4652C47.8559 17.6008 48.7794 17.9696 49.5881 18.5771C50.3968 19.1846 50.9979 20.1609 51.3804 21.5006C51.6481 22.4389 51.7847 23.3068 51.7847 24.1041C51.7847 24.9014 51.6263 25.5848 51.3094 26.1489C50.9706 26.7184 50.599 27.2066 50.1837 27.6134C49.7684 28.0202 49.1838 28.3944 48.4242 28.7307C47.8341 29.0019 47.1948 29.2568 46.5063 29.5063C45.8178 29.7504 45.0637 29.989 44.255 30.2223C41.4355 31.0196 38.7634 31.4155 36.228 31.4155C36.2116 31.4155 36.2007 31.4155 36.1843 31.4155L35.6543 26.2899C35.7198 26.2899 35.7799 26.2899 35.8455 26.2899C36.8509 26.2899 37.8618 26.2248 38.8782 26.0892C39.9656 25.9482 41.0748 25.715 42.2114 25.395C42.7305 25.2485 43.2277 25.0967 43.6922 24.9448C44.1567 24.7929 44.6047 24.6248 45.0309 24.4404L44.7195 23.3502C42.8671 23.8708 41.2879 24.1909 39.9765 24.3048C39.6049 24.3373 39.2443 24.3536 38.9055 24.3536C38.0476 24.3536 37.299 24.2505 36.6542 24.0498C35.7472 23.7678 35.0259 23.2688 34.474 22.5528C33.9276 21.8369 33.4904 20.9257 33.1735 19.8192C32.5342 17.6008 32.8566 15.876 34.1297 14.6448C35.3811 13.419 37.3045 12.4426 39.8891 11.7158C42.1895 11.065 44.3916 10.7395 46.5063 10.7395M46.5063 9.11236C44.255 9.11236 41.8781 9.45949 39.441 10.1483C36.5613 10.9619 34.4521 12.0521 32.9823 13.484C31.7965 14.6285 30.5889 16.7384 31.5998 20.2639C31.9714 21.5657 32.5014 22.6667 33.1735 23.54C33.5014 23.9631 33.8729 24.3319 34.2882 24.6465H33.8401L34.0259 26.4526L34.556 31.5782L34.709 33.0373H36.1843H36.228C38.9 33.0373 41.7524 32.6142 44.7031 31.7789C45.5391 31.5403 46.3314 31.2908 47.0582 31.0304C47.7904 30.7701 48.4789 30.488 49.1073 30.2006C50.0417 29.7829 50.7739 29.311 51.3312 28.7632C51.8449 28.2588 52.3148 27.6513 52.7191 26.9625L52.7301 26.9462L52.741 26.9299C53.1945 26.1218 53.424 25.1726 53.424 24.0987C53.424 23.1495 53.2656 22.1243 52.9596 21.0504C52.4787 19.369 51.6755 18.0998 50.5772 17.2754C50.2712 17.0476 49.9488 16.8414 49.6209 16.6625L49.4952 15.4855L48.9597 10.5768L48.8067 9.18287L47.397 9.1232C47.1019 9.11236 46.7959 9.10693 46.4954 9.10693L46.5063 9.11236Z" fill="black"/>
<path d="M63.3635 31.1603C60.5057 31.106 57.7462 30.7047 55.1671 29.967C51.7192 28.9853 49.4078 27.4178 48.2931 25.3079C47.1838 23.2088 47.1073 20.4914 48.0527 17.2154C48.998 13.9393 50.528 11.6775 52.5989 10.4843C53.7464 9.82798 55.1125 9.4917 56.6698 9.4917C57.9375 9.4917 59.3582 9.71408 60.8991 10.1534C62.5603 10.6253 63.9372 11.1351 65.0028 11.6613C66.1229 12.2199 66.9972 12.8817 67.5983 13.6302C68.2321 14.422 68.5873 15.3495 68.6474 16.3909C68.7021 17.3564 68.5381 18.4954 68.1666 19.7809C67.8496 20.8874 67.3688 21.804 66.7459 22.5145C66.0902 23.263 65.2104 23.7783 64.1285 24.0495C63.746 24.1471 63.3252 24.2122 62.8772 24.2502C63.0411 24.2502 63.205 24.2502 63.3744 24.2502C63.5875 24.2502 63.8006 24.2502 64.0137 24.2448L64.9645 24.2176L64.1066 31.1657L63.369 31.1494L63.3635 31.1603ZM58.2981 17.9584C59.0358 18.17 59.4566 18.2134 59.6861 18.2134C59.7516 18.2134 59.8063 18.2134 59.8609 18.2025C59.8992 18.1971 60.0139 18.0723 60.1123 17.7361L60.2926 17.1123L59.6642 16.9333C58.9265 16.7218 58.5003 16.6784 58.2763 16.6784C58.2107 16.6784 58.1561 16.6784 58.1014 16.6892C58.0632 16.6947 57.9484 16.8194 57.8555 17.1557L57.6752 17.7795L58.3036 17.9584H58.2981Z" fill="white"/>
<path d="M56.6698 10.3108C57.8665 10.3108 59.1997 10.5224 60.6696 10.94C62.287 11.401 63.6094 11.8892 64.6312 12.3936C65.653 12.9035 66.4289 13.4838 66.9535 14.1455C67.4835 14.8018 67.7731 15.572 67.8223 16.4453C67.8715 17.3185 67.724 18.3599 67.3743 19.564C67.0847 20.5566 66.6694 21.3648 66.1229 21.9885C65.5765 22.6123 64.8443 23.0353 63.9208 23.2686C63.3635 23.4096 62.7242 23.4801 62.0029 23.4801C61.5275 23.4801 61.0193 23.4476 60.4729 23.3879C59.1014 23.236 57.4402 22.8781 55.495 22.3248L55.1453 23.5289C55.4786 23.6645 55.8174 23.7947 56.1616 23.914C56.5059 24.0333 56.8446 24.1418 57.1943 24.2395C59.156 24.7981 61.216 25.0802 63.369 25.0802C63.5875 25.0802 63.8061 25.0802 64.0247 25.0693L63.3744 30.3522C60.5713 30.298 57.9102 29.9129 55.3857 29.1915C52.1508 28.2694 50.0252 26.8484 49.0144 24.9337C48.0035 23.0191 47.9434 20.5241 48.834 17.4433C49.7247 14.3625 51.1126 12.2797 53.0033 11.1949C54.0251 10.6037 55.2491 10.3108 56.6643 10.3108M59.6751 19.0271C59.7844 19.0271 59.8828 19.0216 59.9757 19.0054C60.4019 18.9403 60.7079 18.5932 60.8882 17.9586L61.2925 16.5538L59.8773 16.1524C59.2107 15.9626 58.6697 15.8649 58.2653 15.8649C58.1561 15.8649 58.0577 15.8703 57.9648 15.8866C57.5386 15.9517 57.2381 16.2988 57.0523 16.9334L56.6479 18.3382L58.0632 18.7396C58.7298 18.9294 59.2708 19.0271 59.6751 19.0271ZM56.6643 8.68365C54.9649 8.68365 53.4568 9.05247 52.1836 9.7847C49.9269 11.081 48.2658 13.5109 47.2603 16.9931C46.2549 20.4753 46.3533 23.3987 47.5609 25.6876C48.7849 28.0037 51.2602 29.7068 54.9321 30.7536C57.5823 31.5075 60.4128 31.9197 63.3416 31.974L64.8224 32.0011L65.0028 30.5421L65.653 25.2592L65.7732 24.2883C66.3852 23.9683 66.9153 23.5506 67.3579 23.0462C68.0573 22.2489 68.5928 21.2238 68.948 20.0034C69.3523 18.6094 69.5162 17.4162 69.4561 16.3476C69.3851 15.1327 68.9753 14.0479 68.2321 13.1258C67.5546 12.2851 66.5874 11.5475 65.3579 10.9346C64.2378 10.3759 62.8498 9.86606 61.1177 9.37249C59.5057 8.91145 58.0031 8.67822 56.6643 8.67822V8.68365Z" fill="black"/>
<path d="M72.0408 30.6398C71.7785 30.6398 71.5217 30.629 71.2703 30.6127C70.3196 30.5368 69.4617 30.2927 68.7295 29.8805C67.9754 29.4628 67.3416 28.8391 66.8443 28.0255C66.3635 27.2499 66.0137 26.2573 65.8061 25.0857C65.3799 22.6938 65.9919 20.7032 67.6202 19.1682C68.0956 18.7235 68.6475 18.3221 69.2814 17.9587C68.877 18.1377 68.489 18.3221 68.1229 18.5228L67.2814 18.9784L64.9646 12.5022L65.6039 12.1768C67.9098 11.0052 70.6802 10.132 73.844 9.57875C75.0461 9.36721 76.1554 9.26416 77.1499 9.26416C82.3245 9.26416 83.9256 12.1497 84.3518 14.5742L86.685 27.7218L81.9912 28.5408L80.0077 27.1631C79.7946 27.4235 79.5596 27.673 79.3028 27.9062C78.8383 28.3401 78.3138 28.7306 77.7564 29.0723C77.2045 29.4086 76.6199 29.6961 76.0297 29.9293C75.4286 30.168 74.8276 30.3361 74.2429 30.4392C73.467 30.5748 72.7293 30.6453 72.0408 30.6453V30.6398ZM75.9751 21.7988C75.0188 21.967 74.6254 22.1622 74.4724 22.2599C74.4178 22.2978 74.3959 22.4877 74.4451 22.786L74.5598 23.426L75.2319 23.3067C76.2865 23.1223 76.6253 22.927 76.7073 22.8674C76.7838 22.748 76.7892 22.6612 76.7729 22.5636L76.6199 21.6904L75.9751 21.8043V21.7988Z" fill="white"/>
<path d="M77.1499 10.0725C80.8656 10.0725 82.9966 11.6183 83.5485 14.7099L85.7397 27.0602L82.1879 27.6785L79.8164 26.0297C79.5323 26.4853 79.1717 26.9083 78.7454 27.3097C78.3192 27.7057 77.8438 28.0636 77.3302 28.3728C76.8166 28.6874 76.2811 28.9477 75.7292 29.1701C75.1773 29.3925 74.6363 29.5444 74.1008 29.6366C73.3686 29.7668 72.6801 29.8264 72.0408 29.8264C71.8004 29.8264 71.5654 29.8156 71.3359 29.7993C70.4999 29.7342 69.7622 29.5227 69.1338 29.1701C68.5 28.8176 67.9699 28.2914 67.5437 27.5972C67.1175 26.9029 66.806 26.0188 66.6148 24.9395C65.8662 20.7034 68.7076 18.024 75.1445 16.9012L76.5652 16.6517L76.3412 15.3879C75.9641 15.4367 75.6199 15.4747 75.3084 15.5073C74.997 15.5398 74.7183 15.5778 74.4615 15.6266C71.7949 16.093 69.5546 16.8198 67.7295 17.8016L65.9755 12.8929C68.2158 11.7539 70.8878 10.9132 73.9861 10.3708C75.1445 10.1701 76.1991 10.0671 77.1499 10.0671M73.8987 24.3591L75.3795 24.0988C76.4067 23.9198 77.057 23.6865 77.3302 23.3936C77.5597 23.0899 77.6471 22.7645 77.5816 22.4119L77.2865 20.7359L75.833 20.9908C74.986 21.1373 74.3795 21.338 74.0134 21.5821C73.6473 21.8261 73.5271 22.2709 73.6418 22.9218L73.8987 24.3645M77.1499 8.44531C76.1062 8.44531 74.9478 8.55379 73.7019 8.77617C70.4562 9.34568 67.6038 10.2406 65.2269 11.4502L63.9482 12.101L64.4291 13.4462L66.1831 18.3548L66.4782 19.1847C65.0903 20.8173 64.5821 22.8892 64.9974 25.2324C65.2214 26.507 65.6094 27.5918 66.1449 28.4596C66.7186 29.3871 67.4508 30.1085 68.3306 30.5966C69.1666 31.0631 70.1338 31.3451 71.2102 31.4319C71.478 31.4536 71.7621 31.4644 72.0463 31.4644C72.7785 31.4644 73.5708 31.3939 74.3904 31.2475C75.0297 31.1336 75.6855 30.9492 76.3412 30.6888C76.975 30.4393 77.5979 30.1302 78.1881 29.7722C78.7946 29.4033 79.3629 28.9803 79.8711 28.5084C79.964 28.4216 80.0514 28.3348 80.1388 28.2481L81.2481 29.0237L81.8054 29.4088L82.4721 29.2894L86.0238 28.6711L87.6358 28.3891L87.3516 26.789L85.1605 14.4387C84.7671 12.2041 83.1988 8.45616 77.1499 8.45616V8.44531Z" fill="black"/>
<path d="M82.2042 28.6818L87.8542 9.96387L92.4278 11.3253L93.5535 13.4406C94.8266 12.9416 96.1982 12.6867 97.6407 12.6867C98.127 12.6867 98.6352 12.7138 99.1434 12.7735L100.056 12.8765L98.0888 21.2185L97.2528 20.969C97.0396 20.9039 96.75 20.8551 96.3949 20.8226C96.0124 20.7846 95.6135 20.7683 95.2146 20.7629C94.8102 20.7629 94.4714 20.79 94.1545 20.8443C94.0179 20.866 93.8922 20.8985 93.783 20.9419L90.6847 31.1985L82.1987 28.6764L82.2042 28.6818Z" fill="white"/>
<path d="M88.4062 10.9783L91.865 12.0089L93.1874 14.493C94.5589 13.8367 96.0397 13.5059 97.6408 13.5059C98.0998 13.5059 98.5697 13.533 99.0505 13.5872L97.4932 20.199C97.2255 20.1176 96.8867 20.058 96.4769 20.02C96.0671 19.982 95.6518 19.9603 95.2256 19.9603C95.2092 19.9603 95.1928 19.9603 95.1764 19.9603C94.7666 19.9603 94.3841 19.9929 94.0234 20.0525C93.6464 20.1176 93.3404 20.2315 93.1054 20.3888L90.1438 30.1953L83.2315 28.1396L88.4116 10.9837M87.3133 8.95518L86.8434 10.5118L81.6633 27.6677L81.1934 29.2244L82.7616 29.6908L89.6739 31.7465L91.2421 32.213L91.712 30.6563L94.4387 21.6255C94.6682 21.5929 94.9141 21.5767 95.1764 21.5767H95.2146C95.5917 21.5767 95.9632 21.5983 96.3239 21.6309C96.6954 21.6634 96.9086 21.7122 97.0233 21.7448L98.6954 22.2438L99.0943 20.557L100.652 13.9452L101.072 12.1661L99.2418 11.96C98.7008 11.9004 98.1653 11.8678 97.6462 11.8678C96.3621 11.8678 95.1217 12.0577 93.9524 12.4319L93.3185 11.2387L92.9962 10.6366L92.3404 10.4413L88.8816 9.41079L87.3133 8.94434V8.95518Z" fill="black"/>
<path d="M106.722 31.1007C103.138 31.1007 100.477 30.2274 98.8211 28.508C97.1764 26.7941 96.3403 24.2014 96.3403 20.7952C96.3403 17.389 97.1764 14.7963 98.8211 13.0824C100.477 11.363 103.138 10.4897 106.722 10.4897C109.006 10.4897 110.706 10.7609 111.908 11.3088L112.482 11.5745L111.356 17.8663L110.542 17.7144C109.924 17.6005 109.356 17.5029 108.864 17.4378C108.405 17.3727 107.996 17.3402 107.657 17.3402C105.739 17.3402 105.739 18.0832 105.739 18.4358V24.1472C105.881 24.1635 106.028 24.1797 106.181 24.1906C106.602 24.2285 107.089 24.2448 107.629 24.2448C108.646 24.2448 109.722 24.0333 110.826 23.6102L111.842 23.2251L112.438 30.0647L111.875 30.2925C110.536 30.8295 108.804 31.0952 106.728 31.0952L106.722 31.1007Z" fill="white"/>
<path d="M106.728 11.3034C108.875 11.3034 110.487 11.5529 111.569 12.0519L110.695 16.9172C110.056 16.7978 109.482 16.7056 108.979 16.6351C108.476 16.5646 108.034 16.5321 107.657 16.5321C105.832 16.5321 104.919 17.1667 104.919 18.4413V24.8578C105.258 24.9174 105.657 24.9663 106.105 25.0096C106.558 25.0476 107.061 25.0693 107.624 25.0693C108.744 25.0693 109.908 24.8415 111.11 24.3805L111.564 29.544C110.318 30.043 108.706 30.2925 106.722 30.2925C103.356 30.2925 100.919 29.5115 99.4166 27.9494C97.914 26.3873 97.1599 24.0062 97.1599 20.8007C97.1599 17.5951 97.914 15.214 99.4166 13.652C100.919 12.0899 103.356 11.3088 106.722 11.3088M106.722 9.68164C102.903 9.68164 100.045 10.6417 98.2309 12.5292C96.4332 14.395 95.5206 17.1829 95.5206 20.8007C95.5206 24.4184 96.4332 27.2063 98.2309 29.0722C100.05 30.9597 102.908 31.9197 106.722 31.9197C108.941 31.9197 110.722 31.6377 112.176 31.0573L113.301 30.6071L113.197 29.4084L112.744 24.2449L112.558 22.0916L110.525 22.8672C109.515 23.2523 108.542 23.4476 107.624 23.4476C107.236 23.4476 106.881 23.4367 106.558 23.415V18.4467C106.558 18.3925 106.558 18.3545 106.564 18.3328C106.646 18.2894 106.935 18.1647 107.657 18.1647C107.957 18.1647 108.329 18.1972 108.755 18.2514C109.236 18.3165 109.788 18.4087 110.394 18.5226L112.023 18.8264L112.312 17.21L113.187 12.3448L113.411 11.1081L112.263 10.582C110.952 9.97996 109.143 9.68706 106.733 9.68706L106.722 9.68164Z" fill="black"/>
<path d="M121.077 31.5238L122.115 19.027L121.82 19.0053C121.552 18.9836 121.312 18.9728 121.093 18.9728C120.585 18.9728 120.345 19.0325 120.241 19.0704C120.186 19.0921 120.115 19.2603 120.093 19.5477L119.11 31.3665L110.28 30.6451L112.34 5.87402L121.219 5.93911L120.705 12.1115C121.744 11.8132 122.837 11.6668 123.957 11.6668C124.312 11.6668 124.678 11.683 125.044 11.7102C127.099 11.8783 128.661 12.4315 129.689 13.3536C130.782 14.3299 131.273 15.6154 131.148 17.1612L129.891 32.2506L121.066 31.5292L121.077 31.5238Z" fill="white"/>
<path d="M113.105 6.69325L120.345 6.74749L119.798 13.2942C121.104 12.7518 122.498 12.4806 123.973 12.4806C124.312 12.4806 124.651 12.4969 124.995 12.524C126.875 12.6758 128.263 13.1586 129.159 13.9559C130.055 14.7586 130.454 15.8054 130.344 17.0909L129.159 31.3721L121.968 30.7809L123.006 18.2842L121.897 18.192C121.607 18.1703 121.345 18.154 121.104 18.154C120.618 18.154 120.241 18.2028 119.973 18.3004C119.569 18.4469 119.339 18.8374 119.285 19.472L118.367 30.4826L111.17 29.8914L113.099 6.68783M111.591 5.0498L111.465 6.55223L109.537 29.7558L109.4 31.3775L111.034 31.5131L118.23 32.1043L119.864 32.2399L120.001 30.6182L120.902 19.7866C120.962 19.7866 121.028 19.7866 121.104 19.7866C121.148 19.7866 121.192 19.7866 121.235 19.7866L120.334 30.6453L120.197 32.267L121.831 32.4026L129.022 32.9939L130.656 33.1295L130.792 31.5077L131.978 17.2265C132.126 15.4366 131.53 13.8854 130.251 12.7464C129.066 11.6887 127.388 11.0866 125.126 10.9022C124.738 10.8697 124.35 10.8534 123.968 10.8534C123.17 10.8534 122.388 10.9239 121.623 11.0649L121.973 6.88309L122.121 5.13659L120.356 5.12574L113.116 5.0715L111.597 5.06065L111.591 5.0498Z" fill="black"/>
<path d="M22.6931 6.94272C22.4581 6.94272 22.2396 6.79085 22.1685 6.55762C22.0811 6.27016 22.245 5.96642 22.5346 5.88506L24.5236 5.29385C24.8132 5.20707 25.1192 5.36978 25.2012 5.65725C25.2886 5.94472 25.1247 6.24846 24.8351 6.32982L22.8461 6.92103C22.7915 6.9373 22.7423 6.94272 22.6876 6.94272H22.6931Z" fill="black"/>
<path d="M23.529 10.2674C23.2941 10.2674 23.0755 10.1155 23.0045 9.88228C22.917 9.59481 23.081 9.29107 23.3706 9.20971L25.3596 8.62393C25.6546 8.53715 25.9552 8.69986 26.0371 8.98733C26.1246 9.2748 25.9606 9.57854 25.671 9.6599L23.682 10.2457C23.6274 10.262 23.5782 10.2674 23.5236 10.2674H23.529Z" fill="black"/>
<path d="M23.1412 8.56999C22.9062 8.56999 22.6876 8.41269 22.6166 8.17404C22.5346 7.88657 22.704 7.58826 22.9936 7.50148L24.9498 6.94824C25.2394 6.86688 25.54 7.03502 25.6274 7.32249C25.7094 7.60995 25.54 7.90827 25.2504 7.99505L23.2942 8.54829C23.245 8.56456 23.1958 8.56999 23.1412 8.56999Z" fill="black"/>
<path d="M21.9827 13.7173C21.7696 13.7173 21.5674 13.5926 21.48 13.3865C21.3597 13.1099 21.4909 12.7953 21.7696 12.6759L23.7203 11.8461C23.9935 11.7268 24.3214 11.8569 24.4361 12.1336C24.5563 12.4102 24.4252 12.7248 24.1465 12.8441L22.1958 13.6739C22.1247 13.7065 22.0537 13.7173 21.9827 13.7173Z" fill="black"/>
<path d="M14.5022 10.1426C14.2781 10.1426 14.065 10.007 13.9885 9.78461C13.8847 9.50257 14.0322 9.19341 14.3218 9.09035L16.1305 8.45033C16.4146 8.34727 16.7261 8.49914 16.8299 8.78119C16.9338 9.06323 16.7862 9.3724 16.4966 9.47545L14.6879 10.1155C14.6278 10.1372 14.5677 10.148 14.5022 10.148V10.1426Z" fill="black"/>
<path d="M14.9885 11.9869C14.7645 11.9869 14.5513 11.8513 14.4748 11.629C14.371 11.3469 14.5186 11.0377 14.8082 10.9347L16.6168 10.2947C16.901 10.1916 17.2124 10.3381 17.3163 10.6255C17.4201 10.9076 17.2725 11.2167 16.9829 11.3198L15.1743 11.9598C15.1142 11.9815 15.0541 11.9924 14.9885 11.9924V11.9869Z" fill="black"/>
<path d="M15.8081 13.625C15.584 13.625 15.3709 13.4894 15.2944 13.267C15.1906 12.985 15.3381 12.6758 15.6277 12.5728L17.4364 11.9328C17.7206 11.8297 18.032 11.9816 18.1358 12.2636C18.2397 12.5457 18.0921 12.8548 17.8025 12.9579L15.9939 13.5979C15.9337 13.6196 15.8736 13.6304 15.8081 13.6304V13.625Z" fill="black"/>
<path d="M16.0977 15.4093C15.8737 15.4093 15.6606 15.2737 15.5841 15.0513C15.4803 14.7693 15.6278 14.4601 15.9174 14.3571L17.7261 13.717C18.0102 13.614 18.3217 13.7604 18.4255 14.0479C18.5293 14.3299 18.3818 14.6391 18.0922 14.7422L16.2835 15.3822C16.2234 15.4039 16.1633 15.4147 16.0977 15.4147V15.4093Z" fill="black"/>
<path d="M16.6386 17.416C16.4146 17.416 16.2015 17.2804 16.125 17.0581C16.0212 16.776 16.1687 16.4668 16.4583 16.3638L18.267 15.7238C18.5511 15.6207 18.8626 15.7726 18.9664 16.0546C19.0702 16.3367 18.9227 16.6458 18.6331 16.7489L16.8244 17.3889C16.7643 17.4106 16.7042 17.4215 16.6386 17.4215V17.416Z" fill="black"/>
<path d="M17.2179 19.13C16.9938 19.13 16.7807 18.9944 16.7042 18.772C16.6004 18.49 16.7479 18.1808 17.0375 18.0778L18.8462 17.4377C19.1303 17.3347 19.4418 17.4811 19.5456 17.7686C19.6495 18.0506 19.5019 18.3598 19.2123 18.4629L17.4036 19.1029C17.3435 19.1246 17.2834 19.1354 17.2179 19.1354V19.13Z" fill="black"/>
<path d="M17.6003 21.0503C17.3763 21.0503 17.1632 20.9147 17.0867 20.6923C16.9828 20.4103 17.1304 20.1011 17.42 19.9981L19.2286 19.358C19.5128 19.255 19.8243 19.4069 19.9281 19.6889C20.0319 19.9709 19.8844 20.2801 19.5948 20.3832L17.7861 21.0232C17.726 21.0449 17.6659 21.0557 17.6003 21.0557V21.0503Z" fill="black"/>
<path d="M18.9008 25.5304C18.6768 25.5304 18.4637 25.3948 18.3872 25.1724C18.2834 24.8904 18.4309 24.5812 18.7205 24.4781L20.5292 23.8381C20.8133 23.7351 21.1248 23.8815 21.2286 24.169C21.3324 24.451 21.1849 24.7602 20.8953 24.8632L19.0866 25.5033C19.0265 25.525 18.9664 25.5358 18.9008 25.5358V25.5304Z" fill="black"/>
<path d="M19.4035 27.5264C19.1795 27.5264 18.9664 27.3908 18.8899 27.1684C18.7861 26.8864 18.9336 26.5772 19.2232 26.4741L21.0319 25.8341C21.316 25.7311 21.6275 25.8829 21.7313 26.165C21.8351 26.447 21.6876 26.7562 21.398 26.8592L19.5893 27.4993C19.5292 27.521 19.4691 27.5318 19.4035 27.5318V27.5264Z" fill="black"/>
<path d="M19.9609 29.3868C19.7369 29.3868 19.5238 29.2512 19.4473 29.0289C19.3434 28.7468 19.491 28.4376 19.7806 28.3346L21.5892 27.6946C21.8734 27.5915 22.1849 27.738 22.2887 28.0254C22.3925 28.3075 22.245 28.6166 21.9554 28.7197L20.1467 29.3597C20.0866 29.3814 20.0265 29.3923 19.9609 29.3923V29.3868Z" fill="black"/>
<path d="M20.4964 31.1168C20.2724 31.1168 20.0593 30.9812 19.9828 30.7588C19.879 30.4768 20.0265 30.1676 20.3161 30.0646L22.1248 29.4246C22.4089 29.3215 22.7204 29.4679 22.8242 29.7554C22.928 30.0375 22.7805 30.3466 22.4909 30.4497L20.6822 31.0897C20.6221 31.1114 20.562 31.1222 20.4964 31.1222V31.1168Z" fill="black"/>
<path d="M22.4908 15.5665C22.2777 15.5665 22.0756 15.4417 21.9881 15.2356C21.8679 14.959 21.9991 14.6444 22.2777 14.5251L24.2339 13.6952C24.5072 13.5759 24.8295 13.7061 24.9498 13.9827C25.07 14.2593 24.9388 14.5739 24.6602 14.6932L22.704 15.5231C22.6329 15.5556 22.5619 15.5665 22.4908 15.5665Z" fill="black"/>
<path d="M23.2395 17.4107C23.0264 17.4107 22.8242 17.2859 22.7368 17.0798C22.6166 16.8032 22.7477 16.4886 23.0264 16.3693L24.9771 15.5394C25.2504 15.4201 25.5727 15.5503 25.693 15.8269C25.8132 16.1035 25.682 16.4181 25.4034 16.5374L23.4526 17.3673C23.3816 17.3999 23.3105 17.4107 23.2395 17.4107Z" fill="black"/>
<path d="M25.0044 18.9947C24.7913 18.9947 24.5891 18.8699 24.5017 18.6638C24.3815 18.3872 24.5126 18.0726 24.7913 17.9533L26.7475 17.1234C27.0207 17.0041 27.3431 17.1343 27.4633 17.4109C27.5835 17.6875 27.4524 18.0021 27.1737 18.1214L25.2175 18.9513C25.1465 18.9838 25.0754 18.9947 25.0044 18.9947Z" fill="black"/>
<path d="M30.119 17.9532C29.9168 17.9532 29.7201 17.8393 29.6272 17.644C29.4961 17.3728 29.6108 17.0528 29.8841 16.9226L31.7091 16.0548C31.9823 15.9246 32.3047 16.0385 32.4359 16.3097C32.567 16.5809 32.4523 16.901 32.179 17.0311L30.354 17.899C30.2775 17.9369 30.1955 17.9532 30.119 17.9532Z" fill="black"/>
<path d="M30.2938 20.3287C30.0862 20.3287 29.884 20.2094 29.7966 20.0087C29.6709 19.7375 29.7966 19.412 30.0698 19.2927L31.5451 18.6364C31.8183 18.5117 32.1462 18.6364 32.2664 18.9076C32.3921 19.1788 32.2664 19.5042 31.9932 19.6236L30.5179 20.2799C30.4468 20.3124 30.3703 20.3287 30.2938 20.3287Z" fill="black"/>
<path d="M30.8402 22.401C30.6326 22.401 30.4359 22.2817 30.343 22.081C30.2173 21.8098 30.343 21.4843 30.6162 21.365L32.2992 20.6057C32.5724 20.4809 32.9002 20.6057 33.0204 20.8769C33.1407 21.1481 33.0204 21.4735 32.7472 21.5928L31.0642 22.3522C30.9932 22.3847 30.9112 22.401 30.8402 22.401Z" fill="black"/>
<path d="M45.4681 18.9348C45.2331 18.9348 45.0145 18.7829 44.9435 18.5442C44.8561 18.2568 45.0255 17.953 45.3096 17.8717L47.7412 17.1557C48.0308 17.0689 48.3368 17.2371 48.4188 17.5191C48.5007 17.8012 48.3368 18.1103 48.0526 18.1917L45.6211 18.9076C45.5719 18.9239 45.5172 18.9293 45.4681 18.9293V18.9348Z" fill="black"/>
<path d="M45.326 21.1535C45.091 21.1535 44.8724 21.0016 44.8014 20.763C44.714 20.4755 44.8834 20.1718 45.1675 20.0904L47.5991 19.3745C47.8887 19.2877 48.1947 19.4558 48.2767 19.7379C48.3641 20.0253 48.1947 20.3291 47.9106 20.4104L45.479 21.1264C45.4298 21.1427 45.3751 21.1481 45.326 21.1481V21.1535Z" fill="black"/>
<path d="M62.3362 13.9177C62.1013 13.9177 61.8827 13.7658 61.8117 13.5272C61.7242 13.2397 61.8936 12.9359 62.1778 12.8546L64.6093 12.1386C64.899 12.0518 65.205 12.22 65.2869 12.502C65.3743 12.7895 65.205 13.0932 64.9208 13.1746L62.4892 13.8906C62.44 13.9068 62.3854 13.9123 62.3362 13.9123V13.9177Z" fill="black"/>
<path d="M63.0794 15.7131C62.8444 15.7131 62.6259 15.5612 62.5548 15.3226C62.4674 15.0351 62.6368 14.7314 62.9209 14.65L65.3525 13.934C65.6421 13.8473 65.9481 14.0154 66.0301 14.2974C66.1175 14.5849 65.9481 14.8887 65.664 14.97L63.2324 15.686C63.1832 15.7022 63.1286 15.7077 63.0794 15.7077V15.7131Z" fill="black"/>
<path d="M63.675 17.3781C63.44 17.3781 63.2214 17.2263 63.1504 16.9876C63.063 16.7001 63.2324 16.3964 63.5165 16.315L65.9481 15.5991C66.2377 15.5123 66.5437 15.6804 66.6257 15.9625C66.7076 16.2445 66.5437 16.5537 66.2596 16.635L63.828 17.351C63.7788 17.3673 63.7241 17.3727 63.675 17.3727V17.3781Z" fill="black"/>
<path d="M64.4071 19.0378C64.1722 19.0378 63.9536 18.8859 63.8826 18.6473C63.7951 18.3598 63.9645 18.0561 64.2487 17.9747L66.6803 17.2587C66.9699 17.172 67.2759 17.3401 67.3578 17.6222C67.4398 17.9042 67.2759 18.2134 66.9917 18.2947L64.5601 19.0107C64.511 19.0269 64.4563 19.0324 64.4071 19.0324V19.0378Z" fill="black"/>
<path d="M64.9263 20.8386C64.6913 20.8386 64.4728 20.6867 64.4017 20.4481C64.3143 20.1606 64.4837 19.8568 64.7678 19.7755L67.1994 19.0595C67.489 18.9727 67.795 19.1409 67.877 19.4229C67.959 19.705 67.795 20.0141 67.5109 20.0955L65.0793 20.8115C65.0301 20.8277 64.9755 20.8332 64.9263 20.8332V20.8386Z" fill="black"/>
<path d="M84.4828 19.4446C84.4336 19.4446 84.3844 19.4392 84.3353 19.4229L82.849 19.0053C82.5594 18.9239 82.39 18.6256 82.4719 18.3381C82.5539 18.0506 82.8545 17.8825 83.1441 17.9639L84.6303 18.3815C84.9199 18.4629 85.0893 18.7612 85.0074 19.0486C84.9418 19.2873 84.7178 19.4446 84.4828 19.4446Z" fill="black"/>
<path d="M95.5534 15.2898C95.302 15.2898 95.0725 15.1162 95.0179 14.8613C94.9578 14.5684 95.1436 14.281 95.4386 14.2159L97.8593 13.706C98.1544 13.6464 98.444 13.8308 98.5095 14.1237C98.5696 14.4166 98.3839 14.704 98.0888 14.7691L95.6681 15.279C95.6299 15.2844 95.5916 15.2898 95.5534 15.2898Z" fill="black"/>
<path d="M109.678 12.795C109.394 12.795 109.154 12.5726 109.132 12.2852C109.116 11.9868 109.34 11.7265 109.646 11.7102L111.875 11.5692C112.17 11.5529 112.438 11.7753 112.454 12.079C112.471 12.3774 112.247 12.6377 111.941 12.654L109.711 12.795C109.711 12.795 109.689 12.795 109.678 12.795Z" fill="black"/>
<path d="M109.607 14.46C109.323 14.46 109.083 14.2376 109.061 13.9502C109.045 13.6519 109.269 13.3915 109.575 13.3752L111.804 13.2396C112.121 13.2288 112.367 13.4458 112.383 13.7495C112.4 14.0478 112.176 14.3082 111.87 14.3244L109.64 14.46C109.64 14.46 109.618 14.46 109.607 14.46Z" fill="black"/>
<path d="M109.465 16.2555C109.181 16.2555 108.941 16.0331 108.919 15.7456C108.903 15.4473 109.127 15.187 109.433 15.1707L111.662 15.0297C111.963 15.0188 112.225 15.2358 112.241 15.5395C112.258 15.8379 112.034 16.0982 111.728 16.1145L109.498 16.2555C109.498 16.2555 109.476 16.2555 109.465 16.2555Z" fill="black"/>
<path d="M108.351 26.5229C108.077 26.5229 107.848 26.3222 107.81 26.0511C107.771 25.7527 107.979 25.4815 108.28 25.4436L110.148 25.1995C110.449 25.1561 110.722 25.3676 110.76 25.666C110.799 25.9643 110.591 26.2355 110.29 26.2734L108.422 26.5175C108.422 26.5175 108.373 26.5175 108.351 26.5175V26.5229Z" fill="black"/>
<path d="M108.28 28.1504C108.006 28.1504 107.777 27.9497 107.739 27.6785C107.7 27.3802 107.908 27.109 108.209 27.071L110.077 26.8269C110.372 26.7835 110.651 26.9951 110.689 27.2934C110.728 27.5917 110.52 27.8629 110.219 27.9009L108.351 28.145C108.351 28.145 108.301 28.145 108.28 28.145V28.1504Z" fill="black"/>
<path d="M108.143 29.7773C107.87 29.7773 107.64 29.5766 107.602 29.3054C107.564 29.0071 107.771 28.7359 108.072 28.698L109.941 28.4539C110.241 28.4105 110.515 28.622 110.553 28.9203C110.591 29.2187 110.383 29.4899 110.083 29.5278L108.214 29.7719C108.214 29.7719 108.165 29.7719 108.143 29.7719V29.7773Z" fill="black"/>
<path d="M94.5262 17.3186C94.2748 17.3186 94.0453 17.1451 93.9907 16.8901C93.9305 16.5972 94.1163 16.3098 94.4114 16.2447L96.8321 15.7348C97.1326 15.6752 97.4167 15.8596 97.4823 16.1525C97.5479 16.4454 97.3566 16.7328 97.0616 16.7979L94.6409 17.3078C94.6027 17.3132 94.5644 17.3186 94.5262 17.3186Z" fill="black"/>
<path d="M94.7119 19.3038C94.4606 19.3038 94.2311 19.1248 94.1765 18.8699C94.1163 18.577 94.3076 18.2896 94.6027 18.2299L96.4168 17.8611C96.7119 17.8014 97.0015 17.9912 97.0616 18.2841C97.1217 18.577 96.9304 18.8645 96.6354 18.9242L94.8212 19.293C94.783 19.2984 94.7447 19.3038 94.7119 19.3038Z" fill="black"/>
<path d="M84.1604 21.3811C84.1112 21.3811 84.0621 21.3757 84.0129 21.3594L82.5266 20.9418C82.237 20.8604 82.0676 20.5621 82.1496 20.2746C82.2315 19.9872 82.5321 19.819 82.8217 19.9004L84.3079 20.318C84.5975 20.3994 84.7669 20.6977 84.685 20.9852C84.6194 21.2238 84.3954 21.3811 84.1604 21.3811Z" fill="black"/>
<path d="M83.696 23.1384C83.6469 23.1384 83.5977 23.133 83.5485 23.1167L82.0622 22.6991C81.7726 22.6177 81.6032 22.3194 81.6852 22.032C81.7672 21.7445 82.0677 21.5763 82.3573 21.6577L83.8436 22.0754C84.1332 22.1567 84.3026 22.455 84.2206 22.7425C84.155 22.9811 83.931 23.1384 83.696 23.1384Z" fill="black"/>
<path d="M83.2261 25.075C83.1769 25.075 83.1277 25.0695 83.0785 25.0533L81.5923 24.6356C81.3027 24.5543 81.1333 24.2559 81.2152 23.9685C81.2972 23.681 81.6032 23.5129 81.8873 23.5942L83.3736 24.0119C83.6632 24.0932 83.8326 24.3915 83.7506 24.679C83.6851 24.9177 83.461 25.075 83.2261 25.075Z" fill="black"/>
<path d="M82.625 26.8269C82.5758 26.8269 82.5267 26.8215 82.4775 26.8052L80.9912 26.3876C80.7016 26.3062 80.5322 26.0079 80.6142 25.7204C80.6961 25.433 80.9967 25.2648 81.2863 25.3462L82.7725 25.7638C83.0621 25.8452 83.2315 26.1435 83.1496 26.431C83.084 26.6696 82.86 26.8269 82.625 26.8269Z" fill="black"/>
<path d="M45.4681 23.2743C45.2495 23.2743 45.0419 23.1441 44.9599 22.9271C44.8506 22.6451 44.9927 22.3359 45.2713 22.2274L47.1456 21.5115C47.4243 21.4084 47.7412 21.544 47.8505 21.8206C47.9598 22.1027 47.8177 22.4119 47.539 22.5203L45.6648 23.2363C45.5992 23.258 45.5336 23.2743 45.4681 23.2743Z" fill="black"/>
<path d="M45.7467 25.4925C45.5282 25.4925 45.3205 25.3623 45.2386 25.1454C45.1293 24.8633 45.2714 24.5542 45.55 24.4457L47.4243 23.7297C47.703 23.6267 48.0199 23.7623 48.1292 24.0389C48.2384 24.3209 48.0964 24.6301 47.8177 24.7386L45.9435 25.4545C45.8779 25.4762 45.8123 25.4925 45.7467 25.4925Z" fill="black"/>
<path d="M46.7249 27.1522C46.5063 27.1522 46.2987 27.022 46.2167 26.8051C46.1074 26.523 46.2495 26.2138 46.5282 26.1054L48.4024 25.3894C48.6811 25.2864 48.998 25.422 49.1073 25.6986C49.2166 25.9806 49.0745 26.2898 48.7959 26.3983L46.9216 27.1142C46.856 27.1359 46.7905 27.1522 46.7249 27.1522Z" fill="black"/>
<path d="M47.7685 28.6385C47.5499 28.6385 47.3423 28.5083 47.2603 28.2914C47.151 28.0093 47.2931 27.7002 47.5718 27.5917L49.446 26.8757C49.7247 26.7727 50.0416 26.9083 50.1509 27.1849C50.2602 27.4669 50.1181 27.7761 49.8394 27.8846L47.9652 28.6005C47.8996 28.6222 47.834 28.6385 47.7685 28.6385Z" fill="black"/>
<path d="M31.9112 24.2286C31.7036 24.2286 31.5014 24.1093 31.4085 23.9086C31.2883 23.6374 31.4085 23.312 31.6872 23.1926L33.545 22.3736C33.8237 22.2489 34.1406 22.3736 34.2663 22.6502C34.3865 22.9214 34.2663 23.2469 33.9876 23.3662L32.1298 24.1852C32.0588 24.2178 31.9823 24.234 31.9112 24.234V24.2286Z" fill="black"/>
<path d="M33.2227 25.7092C33.015 25.7092 32.8183 25.5953 32.7254 25.3946C32.5997 25.1234 32.7145 24.798 32.9877 24.6732L35.0805 23.7023C35.3537 23.5776 35.6816 23.6915 35.8072 23.9627C35.9329 24.2339 35.8182 24.5593 35.545 24.6841L33.4521 25.6549C33.3757 25.6875 33.2991 25.7037 33.2227 25.7037V25.7092Z" fill="black"/>
<path d="M25.7476 20.6871C25.5345 20.6871 25.3323 20.5623 25.2449 20.3562C25.1246 20.0796 25.2558 19.765 25.5345 19.6457L27.4852 18.8158C27.7584 18.6965 28.0808 18.8267 28.201 19.1033C28.3212 19.3799 28.1901 19.6945 27.9114 19.8138L25.9607 20.6437C25.8896 20.6762 25.8186 20.6871 25.7476 20.6871Z" fill="black"/>
<path d="M26.3049 22.6719C26.0918 22.6719 25.8897 22.5472 25.8022 22.3411C25.682 22.0644 25.8132 21.7499 26.0918 21.6305L28.0426 20.8007C28.3158 20.6813 28.6382 20.8115 28.7584 21.0881C28.8786 21.3648 28.7475 21.6794 28.4688 21.7987L26.518 22.6285C26.447 22.6611 26.376 22.6719 26.3049 22.6719Z" fill="black"/>
<path d="M26.9115 24.7984C26.6984 24.7984 26.4962 24.6736 26.4088 24.4675C26.2886 24.1909 26.4197 23.8709 26.6984 23.757L28.6491 22.9271C28.9223 22.8078 29.2447 22.938 29.365 23.2146C29.4852 23.4912 29.354 23.8112 29.0753 23.9251L27.1246 24.755C27.0536 24.7875 26.9825 24.7984 26.9115 24.7984Z" fill="black"/>
<path d="M27.3759 26.8755C27.1628 26.8755 26.9606 26.7508 26.8731 26.5447C26.7529 26.2681 26.8841 25.9535 27.1628 25.8341L29.1135 25.0043C29.3867 24.885 29.7091 25.0151 29.8293 25.2918C29.9495 25.5684 29.8184 25.883 29.5397 26.0023L27.589 26.8322C27.5179 26.8647 27.4469 26.8755 27.3759 26.8755Z" fill="black"/>
<path d="M27.7966 28.6763C27.5835 28.6763 27.3814 28.5516 27.2939 28.3455C27.1737 28.0688 27.3049 27.7543 27.5835 27.6349L29.5397 26.8051C29.8129 26.6857 30.1353 26.8159 30.2555 27.0925C30.3758 27.3692 30.2446 27.6837 29.9659 27.8031L28.0097 28.6329C27.9387 28.6655 27.8677 28.6763 27.7966 28.6763Z" fill="black"/>
</g>
<defs>
<clipPath id="clip0_1817_2257">
<rect width="132" height="38" fill="white"/>
</clipPath>
</defs>
</svg>
